<svg xmlns="http://www.w3.org/2000/svg" viewBox="0 0 334.81 119.1"><defs><style>.cls-1{fill:#f7323f;}.cls-2{fill:#232020;}</style></defs><title>logo-zwart</title><g id="Layer_2" data-name="Layer 2"><g id="Layer_1-2" data-name="Layer 1"><path class="cls-1" d="M27.18,92.19c.79.5,1.59,1,2.41,1.45a4.37,4.37,0,0,0,2.6.75l1-.42c2.94-1.1,8.18,1.13,10.15,2a5.35,5.35,0,0,1-.83-1.41c.18.33.43.75.83,1.41q1.16.5,2.32.91a4.91,4.91,0,0,0,2.62.28l2.28-.89c.29-.16.56-.46-.54-1.09a37.58,37.58,0,0,1-3.81-2.28,3.41,3.41,0,0,0-2.74-.55L41.88,93c-3,1.07-6.91.14-10.57-2.49-.73-.54-1.45-1.1-2.16-1.69a3.44,3.44,0,0,0-2.79-.92L25,88.4h0c-3.23,1.22-7.36-2.62-9-4.33Q15,83,14.08,81.89c-.94-1.07-1.61-1.56-2-1.5l-.62.31c-.62.25-1.62-.77-2.6-2.11l.63,1A60.25,60.25,0,0,0,14.21,85a13.62,13.62,0,0,1-1.52-2.1c.34.48.8,1.11,1.52,2.1q1,1.06,2.11,2.06c1,.92,1.64,1.37,1.89,1.37l.4-.22a12.28,12.28,0,0,1-1.41-2c.31.45.74,1.05,1.41,2,1.47-.6,6.45,2.6,8.58,4m35.3-13.5c.59-1.08.89-1.62,1.6-2.84-.36.64-.82,1.46-1.6,2.84l.67,2.11a1.63,1.63,0,0,0,2.18,1l4.29-1.54A2.33,2.33,0,0,0,71.11,78c-.15-1.48-.35-3-.6-4.63-.3-1.12-1-1.51-2.26-1.2L65.7,73h0c-4.66,1.58-8.19.07-9.94-4.27h0C54,64,56.12,60.09,61.44,58h0c5.35-1.78,9.18.08,10.26,5q.27,1.35.5,2.67A1.67,1.67,0,0,0,74.51,67l4.93-1.72a2.82,2.82,0,0,0,1.73-2.73Q81,59.86,80.59,57a1.76,1.76,0,0,0-2.37-1.5l-2.66.92c-.73,1.27-1.14,2-1.94,3.35l1.94-3.35c-5,1.62-8.71-.27-10.41-5.33-.66,1.24-1.06,2-1.76,3.29l1.76-3.29c-.31-1-.63-1.94-1-2.91a2.42,2.42,0,0,0-3.13-1.44L55,49a2.49,2.49,0,0,0-1.58,3.12q.52,1.45,1,2.88L58,56.52,54.41,55C56.1,60,54.12,64,48.83,66L46,67.1a2.06,2.06,0,0,0-1.29,2.81q1.2,2.53,2.43,4.88a2.45,2.45,0,0,0,3,1.06l2.63-1c.57-1.22.83-1.75,1.5-3.09l-1.49,3.08c4.78-1.66,8.34-.27,9.77,3.82M0,51.08V49.54c0,.57,0,1.07,0,1.54M10.33,22.25c-.09.4-.18.94-.33,1.79.8-1,1.13-1.47,2-2.47L10,24a7,7,0,0,1,.33-1.79M2.76,65.44c.23-.15.6-.34,1.11-.58.32-.32.31-1.17,0-2.6q-.42-1.49-.74-3A13.51,13.51,0,0,1,1.89,57c.26.52.63,1.21,1.2,2.29-1-5-.29-8.72,2-9.88l.23-.1A11.94,11.94,0,0,1,4,47.21c.27.47.67,1.1,1.28,2.09l1.53-.63C7.59,48.2,8,47.3,8,45.89a54,54,0,0,1,0-5.66c0-1.28-.34-1.83-1-1.67l-1.4.58h0c-2.68,1-2.31-2.74-1.06-6.61a10,10,0,0,1,.33-2.1c-.09.48-.18,1.1-.33,2.1C6,28.24,8.12,24.91,10,24c1.77-.66,2.17,1.26,1.19,5.69.82-1.19,1.16-1.68,2-2.8l-2,2.8c-.19.86-.37,1.72-.52,2.6-.19,1.83.77,1.58,1.09,1.5l3.9-1.52a3.18,3.18,0,0,0,1.71-2.6c.11-1.68.29-3.31.55-4.88.09-1.08-.23-1.48-1-1.28l-1.68.65c-.16.06-.36.13-.52.17-2,.57-3.13-.81-.68-5.2q.63-1.1,1.33-2.16c.48-.75.62-1.06.6-1.3l-.06,0-.11,0-1.46.61a7.86,7.86,0,0,0-1.78,1.88q-.83,1.11-1.59,2.26c-4.84,7.41-4.84,7.41-5.51,7.83l-.32.18A11.1,11.1,0,0,0,4,30.64,50.28,50.28,0,0,0,2.09,36.1c-.5,1.77-.45,1.92-.41,2.05l.38-.21h0v0c.21-.55.46-1.16.73-1.78l-.75,1.82h0c1.32-.55,1.07,5,1,7.16a31.63,31.63,0,0,1,1.17-3c-.27.67-.62,1.57-1.17,3H3c-.34,7-1.31,9.06-2.06,9.55-.58.23-.9-1-1-3.57v.49l.09,2a53.7,53.7,0,0,0,1,6.75,16,16,0,0,1-.22-2.81c0,.64.11,1.48.22,2.81.21,1,.45,2,.72,3,.41,1.43.7,2.11.9,2.15m27.8-54.11,1.25-1.75c-.45.65-.72,1-1.25,1.75m3.89-8.71h0l-.4.09a9.35,9.35,0,0,1,1.24-.27l-.82.18a2.65,2.65,0,0,1,1.31,0c.07,0,.68.28-.55.77l-.7.25a.45.45,0,0,0-.27.66c.13.22.27.47.41.74.89,1.77-.19,3.51-2.82,4.54h0c-2.68.93-4-.1-3-2.4a11.57,11.57,0,0,1,.57-1.1c.38-.66.08-.58,0-.56L28.12,6a5.5,5.5,0,0,0-1.43,1.1,19.36,19.36,0,0,0-2.17,2.75l-.14.23c-.13.25-.36.81.29.64l1.18-.45,1.49-1.55-1.49,1.55c2.13-.75,3.21.29,3.22,3.11,0,.58,0,1.17,0,1.79.12.86.64,1.15,1.59.9l4-1.47a1.62,1.62,0,0,0,1.13-1.9l-.52-1.6c-.86-.34-1.2-.47-1.86-.77l1.86.77a3.88,3.88,0,0,1,2.37-5.17l.21-.08c-.81-.19-1.11-.26-1.69-.42l1.69.42,1.3-.47c.57-.27.63-.6.16-1s-.71-.48-1.06-.68c-2.17-1.26-1.92-1.35-1.47-1.51h0l-.15.06.63-.22,0,0a4.53,4.53,0,0,0-1,.1,16,16,0,0,0-2.37.61l-.36.13h0a6.38,6.38,0,0,1,.84-.22Zm4.3,4.45-1.48.53A1.06,1.06,0,0,0,36.57,9c.41.89.84,1.88,1.3,2.94a1.67,1.67,0,0,0,2.11.72L42,12a8.14,8.14,0,0,1,9.57,2.79c.45.62.9,1.25,1.35,1.91a2.67,2.67,0,0,0,2.94.89l4.74-1.65c1-.47,1.18-1.15.48-2.08-1.13-1.23-2.28-2.37-3.44-3.43a3.19,3.19,0,0,0-2.86-.67l-2,.68a16.41,16.41,0,0,1-.52,2.09c.13-.48.28-1.1.52-2.09a8.62,8.62,0,0,1-9.37-2.2A15.54,15.54,0,0,1,42.8,10c.15-.41.34-1,.63-1.81h0L41,7.61l2.46.58c-1.27-1.45-2.28-3.37.16-4.33l.2-.07L45,3.36l.16-.07c.14-.09.36-.35-.64-.68a20.5,20.5,0,0,0-3.55-.67A5.71,5.71,0,0,0,39.07,2l-1.32.46-.08,0c-.14.1,0,.23.47.38a11.8,11.8,0,0,1,1.2.45l2.15.19-2.15-.19c2.36,1.08,2.11,2.67-.59,3.7m-7.25-3s0,0,.15,0l1-.37c.23-.11.35-.25.36-.42s0-.23,0-.24l-.28.1h0a3.57,3.57,0,0,0-1,.6c-.18.17-.23.23-.23.32m-2.12.85h0l.46-.17a14.12,14.12,0,0,1,1.25-.78l-1.25.78c.45-.16.78-.28,0,2-.12.37-.22.76-.32,1.18-.07.59.2.8.8.64l2.6-1c.61-.28.87-.68.77-1.22-.1-.34-.19-.66-.28-1A5.81,5.81,0,0,1,32.57,5l.95.44a1.84,1.84,0,0,1,.92-2.39l.08,0,.5-.18c.1,0,.1,0,.11-.09s-.15-.08-.42-.08a3.78,3.78,0,0,0-1.27.22l-.28.1h.06a3.67,3.67,0,0,1,.55,0h-.53c.31.14.19,1-1.33,1.58a1.63,1.63,0,0,1-.87.13C30.69,4.59,31,4,32.21,3.38a4.23,4.23,0,0,1,.46-.2l-.35.13h0a14.34,14.34,0,0,0-2.14,1c-.71.43-.75.5-.78.57m14.7.26c-.61.28-.64.66-.1,1.2a33.72,33.72,0,0,1,2.64,2.46,2.63,2.63,0,0,0,2.53.58l3.72-1.3c.79-.37.79-.85,0-1.47a33.48,33.48,0,0,0-3.6-2.14,3.69,3.69,0,0,0-2.44-.31l-2.77,1m-16.67,7.2c0-.75-.23-1-.88-.84l-2.72,1a3.51,3.51,0,0,0-1.62,1.79,33.87,33.87,0,0,0-1.28,3.9c-.26,1.44.66,1.19,1,1.11l1.8-.68c4.26-1.51,5.64,1.33,6,4,.11.74.22,1.5.34,2.27.3,1.07,1,1.43,2.25,1.1l5.06-1.86a2,2,0,0,0,1.4-2.44q-.74-2.18-1.4-4.15a1.65,1.65,0,0,0-2.18-.88l-2.14.78L31.43,20l1.64-2.56c-3.88,1.34-6.12,0-5.86-3.37q.09-.89.21-1.72M42.91,73.55l-3.56-1.29,3.56,1.29M74.64,42l-2.8,1c-.67,1.41-.79,1.63,0,0-5.19,1.68-9.41-.26-11.59-5.33-.63,1.31-1,2.09,0,0q-.57-1.4-1.15-2.75a2.56,2.56,0,0,0-3.19-1.27L50,35.77a2.34,2.34,0,0,0-1.52,3l1,2.79h0c1.83,5.21-.28,9.44-5.77,11.59l-3,1.11a2.42,2.42,0,0,0-1.47,3.11c.37,1,.75,1.91,1.13,2.85,2.27,6.18-1,9.09-3.68,10.39l-3.45,1.31a1.76,1.76,0,0,0-.85,2.67q1.47,2.43,3,4.65a2.78,2.78,0,0,0,3,1l4.85-1.83a1.69,1.69,0,0,0,.92-2.5c-.59-1.05-1.18-2.14-1.75-3.24-1.53-3.8,0-7.24,4.25-9.15.26-.12.61-.25.87-.36L44,61.67l3.61,1.45L50.56,62a2.38,2.38,0,0,0,1.52-3l-1-2.83-3.52-1.48L51,56.21c-2.61-7.52,3.39-10.62,5.29-11.39l.49-.19h0c5.59-1.88,9.8.07,11.55,5.34q.45,1.45.85,2.88A2.13,2.13,0,0,0,72,54.28l5.52-1.92a2.55,2.55,0,0,0,1.56-3q-.7-2.9-1.61-5.84A2.27,2.27,0,0,0,74.64,42m-46,25.7A2.53,2.53,0,0,0,31.7,69l5.42-2A2.13,2.13,0,0,0,38.36,64c-.4-.91-.79-1.83-1.18-2.77-1.63-.69-2.22-.93-3.62-1.57l3.62,1.57c-2-5-.14-9.22,4.9-11.31l.5-.2L39,48.19l3.6,1.58,3-1.11a2.49,2.49,0,0,0,1.57-3.12q-1-2.87-2-5.63a2.35,2.35,0,0,0-3.07-1.28L39.15,39.7c-5.38,1.85-9.1.12-10.21-4.76-.18-.88-.35-1.74-.5-2.59a1.64,1.64,0,0,0-2.29-1.25l-4.84,1.83a2.86,2.86,0,0,0-1.68,2.74c.13,1.77.33,3.58.61,5.42a1.68,1.68,0,0,0,2.33,1.41l2.61-1c.73-1.33,1.08-1.94,1.88-3.32l-1.88,3.32c4.93-1.74,8.59.07,10.3,5.09.74-1.43,1.07-2.07,1.91-3.62L35.47,46.6v0c1.61,5.28-.36,9.48-5.39,11.51l-2.75,1a2.26,2.26,0,0,0-1.2,3q1.17,2.84,2.49,5.52m30.85-5.55a2.36,2.36,0,0,0-1.56,2.89q.91,2.63,1.75,5.13a2.06,2.06,0,0,0,2.71,1.17l5.29-1.89a2.49,2.49,0,0,0,1.63-2.72q-.55-2.59-1.23-5.31a2.05,2.05,0,0,0-2.78-1.34l-5.81,2.08M26.15,55.9l5.59-2.11a2.5,2.5,0,0,0,1.47-3.1C32.57,48.76,32,46.85,31.43,45a2.07,2.07,0,0,0-2.79-1.37l-5.42,2a2.6,2.6,0,0,0-1.51,3c.47,1.91,1,3.84,1.61,5.79a2.18,2.18,0,0,0,2.83,1.48m46-25.58A2.64,2.64,0,0,0,69.08,29l-2.71.94c-.54,1.29-.78,1.87-1.4,3.23.32-.73.73-1.69,1.4-3.23-5.05,1.64-9.3,0-11.65-4.38-.55,1.2-.8,1.74-1.43,3,.33-.69.75-1.59,1.43-3q-.61-1.19-1.22-2.33a2.52,2.52,0,0,0-3-1l-5.29,1.9a2,2,0,0,0-1.35,2.58c.62,1.59,1.26,3.23,1.91,4.93a2.36,2.36,0,0,0,3,1.19l2.9-1c5.34-1.8,9.62-.08,11.75,4.71.39.93.77,1.87,1.15,2.82a2.53,2.53,0,0,0,3.14,1.43l5.69-2a2.18,2.18,0,0,0,1.24-3Q73.52,33,72.2,30.32M46.72,20.79l-3.07-1.07,3.07,1.07m-11.42,17,5.78-2.12a2.33,2.33,0,0,0,1.55-2.85l-.89-2.53c-1.53-.62-2.11-.85-3.25-1.34l3.25,1.34c-1.4-4.35.36-7.7,4.95-9.43h0l2.55-.91c1.14-.53,1.47-1.28,1-2.28q-1.23-2-2.45-3.77a2.36,2.36,0,0,0-2.59-.75l-4.29,1.54a1.6,1.6,0,0,0-1.07,2.06l.81,2c1.47,3.88-.39,7.15-5.1,9h0l-2.63,1a2.48,2.48,0,0,0-1.61,2.69q.55,2.52,1.24,5.18a2,2,0,0,0,2.77,1.27M60,18.88h0ZM61.77,92a16.5,16.5,0,0,1,.69-1.72c-.16.4-.37.91-.69,1.72m9.38,3.11v0h-.05l-.62.22.15,0c-.59.44-.83.62-1.29.92l1.29-.92c-.42.14-.82.27,0-2.52.12-.42.23-.86.33-1.33.08-.66-.19-.91-.81-.77l-1.3.47c-3.29,1.1-4.85-1.25-5.48-2.74l-.67-1.69a1.65,1.65,0,0,0-2.11-.81l-4,1.47c-.89.43-1.09,1-.61,1.81.4.52.79,1,1.18,1.5,1.14.31,1.57.43,2.43.69l-2.43-.69c1.89,2.38,1.78,4-.32,4.86L55.64,96c-.18.09-.7.39.49.88a22.4,22.4,0,0,0,3.51.95,4.56,4.56,0,0,0,1.83,0l1.3-.49c.18-.09.27-.23-.38-.56-.39-.17-.79-.37-1.19-.6-2.35-1.39-2.11-3.09.58-4.15,2.1-.72,4.57-.56,5.22,2,.3-.54.43-.75.83-1.38L67,94.08c.08.35.15.67.21,1,.15.51.46.5.68.44l.7-.25c.33-.42.48-.6.91-1.12l-.91,1.12a1.77,1.77,0,0,1,.72-.12c.59.09.3.85-.82,1.66a6.25,6.25,0,0,1-1.1.64,16.23,16.23,0,0,0,3-1.59,3.59,3.59,0,0,0,.8-.67m-.06-1.52c-.33.68-.17.72,0,.69l1.32-.46a5,5,0,0,0,1.46-1.2,22.45,22.45,0,0,0,2.21-3c.43-.78.38-1.12-.16-1l-1.2.41c-2.16.7-3.26-.5-3.25-3.57v0a8.27,8.27,0,0,1,5.38-7.77l.33-.12,2-.68a3.06,3.06,0,0,0,1.75-2.37q.29-2.41.38-5c-.07-1.2-.64-1.66-1.74-1.4L74.83,69.8a2.61,2.61,0,0,0-1.68,2.59c.09.82.16,1.62.22,2.41a23.47,23.47,0,0,1,2,1.38l-2-1.38a8.1,8.1,0,0,1-5.48,8.47c.91.48,1.25.66,1.93,1.1l-1.93-1.1-2,.72a1.69,1.69,0,0,0-1.13,2c.36,1.19.69,2.31,1,3.33a1.11,1.11,0,0,0,1.49.74l1.49-.54c.48-.72.72-1.08,1.28-1.89L68.7,89.52c2.74-.92,4,.29,3,2.87a13,13,0,0,1-.59,1.25m-14-8.85.35-.14,2.14-.78a1.69,1.69,0,0,0,1.07-2.16c-.53-1.35-1.08-2.77-1.65-4.26a2.06,2.06,0,0,0-2.66-1l-5.06,1.86c-1.14.55-1.46,1.32-1,2.38.41.7.82,1.38,1.23,2.05,1.47.47,2,.64,3.12,1l-3.12-1c1.17,2,2.46,5.52-2,7.3l-1.8.68c-.28.15-1.14.59,0,1.59a37.49,37.49,0,0,0,3.56,2.37,3.3,3.3,0,0,0,2.4.38l2.73-1c.6-.3.63-.72.09-1.32q-.65-.62-1.31-1.3c-2.88-3.11-.81-5.49,1.84-6.59m8.15,11.63a2.71,2.71,0,0,1,.19-.88c-.05.21-.1.46-.19.88m3.65-.25c.09-.14.14-.29-.08-.24l-.5.18c-1.39.46-2.25-1.13-2.48-1.62l-.45-1.05A1.12,1.12,0,0,0,64,92.9l-2.61,1c-.57.28-.62.65-.17,1.12.36.3.7.58,1.05.83l1.62.32-1.62-.32c2.26,1.67,1.8,1.86,1.42,2l-.46.17,0,0v0a3.19,3.19,0,0,0,1,0,15,15,0,0,0,3.17-.64,5.24,5.24,0,0,1-.95.18c-.46.06-.63.09-1.23.13l1.23-.13a3.31,3.31,0,0,1-1.59-.16c-.49-.23-.49-.65.43-1,1.36-.46,2.26,0,2.17.8a3.77,3.77,0,0,1,.36-.48l-.36.48-.07.2a4.45,4.45,0,0,0,1.38-1Zm-2.44.61-1,.37-.06,0s-.16.17.37.28a3.87,3.87,0,0,0,1.6,0,1.24,1.24,0,0,1-.32-.42.5.5,0,0,0-.58-.21M45.93,89l3.93-1.49c.9-.44,1.07-1.07.54-2-.89-1.22-1.79-2.51-2.68-3.88a2.55,2.55,0,0,0-2.91-.93l-4.66,1.76c-1,.51-1.14,1.22-.45,2.19q1.68,1.92,3.41,3.6a3,3,0,0,0,2.81.71M63.27,1.73l1.14.32-1.14-.32m5.93,2,.78.32-.78-.32m.84.34-.06,0,0,0ZM56.07.33C55.48.27,55.16.25,55,.24l1.21.11Zm5.42,7.14c1.45.33,2,.45,3.24.79l-3.24-.79M49.16.11c1.22,0,1.66,0,2.79,0H49.16c4,0,6.49.48,6.87.92,0,.11,0,.14-.29.24,1.3.12,1.77.17,3,.35l-3-.35L55,1.5l-.09,0v.07a3.34,3.34,0,0,0,1.37.59q1.24.35,2.46.79c1.35.21,1.84.29,3.08.55L58.74,3a19.46,19.46,0,0,1,2,.83c2,1,3.36,2.46,1.3,3.44L59.81,8c-.48.22-1,.63.06,1.63.61.51,1.22,1,1.82,1.59,1.54.41,2.13.56,3.4.94l-3.4-.94c3.29,3.16,2.65,6-1.71,7.66h0l-.06,0-2.53.89a1.62,1.62,0,0,0-.95,2.41q1.31,2.25,2.59,4.7a2.65,2.65,0,0,0,3.15,1.17l5.41-1.88a1.67,1.67,0,0,0,.89-2.58q-.73-1.17-1.49-2.29C63.53,16,66.41,14,68.43,13.23h.09l1.87-.62c.73-.36.64-.95-.27-1.8-.69-.57-1.4-1.08-2.1-1.61h0C64.5,6.55,63.34,4.91,64.6,4.28l.26-.1.86-.26.09-.06c0-.28-.78-.61-1.52-.9s-1.77-.61-2.66-.88C59.41,1.45,58,1.1,56,.64,54.78.35,54.78.34,54.73.25H55L53,.11l-.37,0L51,0H48.83c-1.34.05-3.11.21-4.45.32l-.18,0L46.28.21q1.45-.09,2.88-.1M38.47,1.65l.4-.13A30.81,30.81,0,0,1,47.1.72h0c1.21,0,1.65-.06,2.82,0l-2.82,0a12.71,12.71,0,0,1,4.66.77c.56.27,1,.68-.27,1.13,1.32.12,1.79.16,3,.32l-3-.32L50.35,3c-.48.23-.31.53.56,1A35.84,35.84,0,0,1,54.8,6a3.86,3.86,0,0,0,2.79.51l3-1c.27-.11.74-.45-.74-1.2q-1.15-.52-2.33-1c-.76-.29-2.34-.89-3.36-1.32-1.59-.68-2-1-1.48-1.21l.09,0L53.35.6l0,0A7.21,7.21,0,0,0,51.58.3,43.59,43.59,0,0,0,46,.29,20.16,20.16,0,0,0,43.6.54l-.3.09a12.36,12.36,0,0,1,2.24,0,28.66,28.66,0,0,0-5.8.6L40,1.13,40.5,1c-.39.06-1,.18-1.18.23l-.4.09c-1,.22-1.7.43-2.37.62.44-.12.89-.23,1.33-.33l.35-.07c-1,.22-1.78.44-2.36.6l-.13,0L37,1.87l-1.21.28c-.79.24-1,.3-1.62.51h0A20.09,20.09,0,0,1,36.67,2c.6-.12,1.21-.18,1.79-.34M71.83,5.81q1.24.67,2.46,1.41A27.29,27.29,0,0,1,77,8.46L74.29,7.21c3.31,2.06,6.29,4.77,3.78,5.63,1.29.6,1.76.82,2.87,1.44l-2.87-1.44-1.32.41c-.57.3-.44.92.4,1.9a54.5,54.5,0,0,1,3.7,4.31c.92,1.07,1.76,1.53,2.58,1.42l2.69-.82c.46-.27.28-.93-.56-2-.62-.75-1.26-1.47-1.91-2.18-1.7-1.84-5.25-5.68-4.14-6h0a3.21,3.21,0,0,0,.35-.08A13.43,13.43,0,0,0,78.16,8.5a49.6,49.6,0,0,0-5-2.94,13.51,13.51,0,0,0-2.15-1,5.34,5.34,0,0,0-.72.13l0,0a4.9,4.9,0,0,0,1.58,1.06m-9.6-3.88c1.25.25,1.7.34,2.79.65l-2.79-.65a26.39,26.39,0,0,1,4,1.47C67.37,3.95,69,5,67.56,5.48c1.34.37,1.82.5,3,.92l-3-.92-1.05.33c-.43.23-.16.66.86,1.34a48.17,48.17,0,0,1,4.41,3.1,3.89,3.89,0,0,0,2.73,1l2.36-.72c.37-.23,0-.73-1-1.53q-1.16-.82-2.36-1.57c-4.3-2.67-5.74-3.58-5.8-4l.09-.07A3.24,3.24,0,0,1,69,3.67c-.92-.35-1.93-.72-2.74-1s-1.35-.44-1.88-.59c.36.11.7.23,1.17.42l-2.31-.74c-.93-.26-1.88-.48-2.84-.68-1.8-.36-2.3-.41-2.32-.41a2.34,2.34,0,0,0-.51.11,12.24,12.24,0,0,0,1.87.48q1.39.31,2.75.69M50.14,1.54c-.15-.19-.56-.28-1.31-.39A33.81,33.81,0,0,0,44,.9a12.1,12.1,0,0,0-2.23.21l-1.06.35-.05.06a4.34,4.34,0,0,0,1.09.13,23.07,23.07,0,0,1,3.9.55,5.78,5.78,0,0,0,2.37.1l2-.66ZM41,.85l-.18,0-1.1.23L40.94.87Zm48.9,18.61.6.83c-.17-.24-.36-.5-.6-.83M92.85,36a22.46,22.46,0,0,1-.55,3c.13-.69.3-1.6.55-3a20.32,20.32,0,0,1,2,2.27c-.43-.51-1-1.2-2-2.27M91.07,21.91a16.58,16.58,0,0,1,1.8,2.19c-.4-.51-.95-1.17-1.8-2.19l-.59.13c-.26.2,0,.9.66,2.11q.78,1.29,1.5,2.64a18.77,18.77,0,0,1,1.88,2.26c-.42-.52-1-1.2-1.88-2.26.94,1.83,3.74,7.9.2,9.17-1.29.33-4.69.35-8.25-6.68a27.7,27.7,0,0,1-.68,3c.16-.69.37-1.61.68-3q-.67-1.36-1.4-2.66c-.79-1.21-1.65-1.68-2.7-1.48L76,26.63c-1.09.51-1.37,1.39-.84,2.66.9,1.75,1.76,3.57,2.55,5.45a2.46,2.46,0,0,0,2.88,1.55l2.38-.8c5.75-1.74,7.87,4,8.5,6.6q.35,1.49.62,3c.33,1.37.86,2,1.63,1.9q1.56-.49,2.75-.84c.55-.31.72-1.12.55-2.57q-.24-1.49-.56-3c-1.59-7.34-1-8.85-.43-9.09l.08,0,.41-.06c.08-.15-.16-.85-.77-2.21q-.64-1.4-1.37-2.75c-.56-1-1.49-2.73-2.76-4.61l-.07-.11-1-1.43c.81,1.16.82,1.5.53,1.63m6,10.24c-.1-.27-.21-.57-.34-.9Zm0,0c.76,2.08.58,2.49.26,2.59a15.43,15.43,0,0,1,1.14,2.57c-.25-.58-.6-1.36-1.14-2.57l-.61.14c-.3.22-.27,1,.08,2.46a52.3,52.3,0,0,1,1.28,5.93c.25,1.39.54,2.1.9,2.16l.59-.13c.19,0,.64,0,.82,2.5l0-.91,0-.57a53.66,53.66,0,0,0-1-6.35,14.52,14.52,0,0,1,.24,2.64c0-.6-.12-1.39-.24-2.64v0a54.68,54.68,0,0,0-1.48-5.64L97.78,34l-.34-1Zm3.39,17.4c0-.69,0-1.26-.07-1.75l.07,1.88ZM86.75,23.16a15.73,15.73,0,0,1,.05,2.65c0-.61,0-1.4-.05-2.65a24.81,24.81,0,0,1,2.52,1.9l-2.52-1.9m-2.13-7.57A22.41,22.41,0,0,1,87,17.36l-2.36-1.77c1.36,1.47,5.53,6.34,2.12,7.56-1.26.32-4.73.46-9.55-5.29A15.26,15.26,0,0,1,77,20.39c0-.58.09-1.34.15-2.53-.6-.73-1.22-1.44-1.85-2.12a3.13,3.13,0,0,0-2.86-1.11L68.5,16c-1,.45-1.08,1.17-.41,2.2q1.67,2.12,3.21,4.47a2.87,2.87,0,0,0,3.07,1.23l2.26-.76c5.31-1.61,8.52,2.77,10,5.52q.69,1.35,1.31,2.76c.67,1.31,1.4,1.9,2.23,1.8,1.07-.34,2-.62,2.83-.87.52-.3.5-1.11,0-2.46-.43-.93-.87-1.85-1.34-2.75-3.12-6-3.09-7.54-2.51-7.8l.08,0a2.43,2.43,0,0,0,.41-.1,9.46,9.46,0,0,0-1.3-1.74,50.19,50.19,0,0,0-4.08-4.21,10.3,10.3,0,0,0-1.87-1.5,6.79,6.79,0,0,0-.89.17l-.06.05c0,.37.61,1,1.2,1.59s1.39,1.35,2.06,2.06m15.58,33a7.06,7.06,0,0,0-1,.18c-.32.22-.5,1-.53,2.44q0,1.46-.08,2.92A12.9,12.9,0,0,1,99,56.56c-.07-.55-.19-1.29-.38-2.44-.16,2.36-.86,7.95-3.85,9h0c-1.55.41-3.42-.43-3.54-6.73-.64,1.26-.93,1.81-1.66,3.06l1.66-3.06c0-.95,0-1.91-.1-2.87-.17-1.35-.72-1.93-1.67-1.76L85,53.21a2.74,2.74,0,0,0-1.59,2.85c.22,1.89.37,3.76.44,5.59.15,1.26.73,1.76,1.76,1.54l2.08-.7.21-.35-.2.34c3.47-1.06,4.84,1.25,3.65,6.18q-.34,1.32-.74,2.6c-.33,1.21-.25,1.76.25,1.71l2-.61a5,5,0,0,0,1.46-2.23c.34-.87.65-1.76.93-2.66.89-2.78,2.55-8,3.76-8.44l.08,0,.36-.06a6.74,6.74,0,0,0,.51-2.24,50.32,50.32,0,0,0,.42-5.85,5.72,5.72,0,0,0-.2-2.3M92.95,58.66c0,1.31.3,1.91,1,1.84l2.45-.75c.53-.28.86-1.07,1.06-2.45a53.14,53.14,0,0,0,.29-5.82c-.06-1.39-.36-2.06-.92-2l-1.25.38c-.44,1.26-.61,1.75-1.15,3,.27-.68.61-1.58,1.15-3-1.51.39-4.31,0-6.05-7-.46,1.33-.66,1.88-1.22,3.18.28-.72.65-1.68,1.22-3.18q-.35-1.48-.78-3c-.51-1.38-1.27-2-2.3-1.78l-4.59,1.53a2.34,2.34,0,0,0-1.24,3q.9,2.94,1.56,5.85c.42,1.33,1.21,1.85,2.4,1.61l2.3-.78c5.57-1.68,6.2,4,6.22,6.58q0,1.44-.1,2.87M87.73,62.5h0ZM76.35,93.1l-1.16.7,1.16-.7m-5.07,2.45c.41-.29.93-.67,1.35-.92a9.3,9.3,0,0,1-1.35.92m-1.69.91-.49.22.58-.28ZM89.67,81.1,91.32,79q.84-1.2,1.61-2.45a7.06,7.06,0,0,0,1-1.95,5.5,5.5,0,0,0-.67.13,7.42,7.42,0,0,0-1.48,2q-.73,1.24-1.52,2.43a13.65,13.65,0,0,1-1.1,2c.26-.44.58-1,1.1-2-2.78,4.11-5.5,6.48-6.55,6.85a10.68,10.68,0,0,1-1.2,1.62c.28-.36.64-.85,1.2-1.62l-.65.2A8,8,0,0,0,81.21,88q-.87.95-1.8,1.83a9.6,9.6,0,0,1-1.28,1.38c.3-.31.68-.73,1.28-1.38a28,28,0,0,1-6.68,4.8l-.45.15a12,12,0,0,0-1.57,1,20.11,20.11,0,0,1-3.34,1.72c.78-.29,1.54-.61,2.29-.93l-.62.27,1-.38-.23.1.35-.14.72-.32.36-.16-.22.09,1-.45-.75.35.92-.43.59-.27.41-.21-.71.34L73,95l-.77.38-1.74.8-.2.08c.86-.38,1.72-.78,2.56-1.2.35-.18,1.42-.73,2.05-1.12l-.16,0c-.72.34-1.4.75-2.1,1.12-.41.21-.83.4-1.25.6h0c1.73-.85,3.19-1.68,5.1-2.83a10.5,10.5,0,0,1,1.17-.67v0s-.46.35-1.35.91c.79-.48,1.56-1,2.33-1.51l-.9.64,0,0c1.27-.87,1.27-.87,1.93-1.34s1.59-1.19,2.36-1.82l.65-.55.16-.13.52-.45.55-.51c-.34.31-.7.63-1.08,1l-.19.16-.79.62.15-.13-.34.27-1,.78-.31.23-.46.32L82.07,89c.76-.63,1.51-1.28,2.23-1.95a11.59,11.59,0,0,0,1.56-1.59l-.44.08a15.85,15.85,0,0,0-1.82,1.64q-1,1-2.13,1.93a18.68,18.68,0,0,1-1.79,1.54l1.79-1.54a36.5,36.5,0,0,1-7.35,5,17,17,0,0,1-2,1.16l2-1.16-.25.08c-.68.3-1.29.72-1.94,1.08s-1.46.76-2.21,1.1l.31-.15.23-.11.23-.12c1.4-.72,2.62-1.45,4-2.31.83-.51,1.62-1,2-1.17l.13,0,.3-.09a15.61,15.61,0,0,0,2-1.35q1.12-.86,2.19-1.78c1.31-1.15,2.11-1.9,3.87-3.6a21.6,21.6,0,0,1,2.83-2.5l.05,0,.05,0A10.58,10.58,0,0,1,86,85.47l.51-.49a52.33,52.33,0,0,0,4.81-6c-.67.9-.93,1.25-1.65,2.07M86,85.47c-.57.56-1.2,1.18-1.8,1.75.69-.64,1.29-1.23,1.8-1.75M70.33,96.1l-.08,0-.11.06ZM87.9,71.91l1.93-2.73c.2-.88.38-1.78.54-2.67.14-1.27-.18-1.82-1-1.68L85.54,66.1a3.12,3.12,0,0,0-1.77,2.6c-.07.86-.14,1.71-.25,2.55a9.93,9.93,0,0,1,1.33,1.67c-.29-.38-.69-.88-1.33-1.67-.6,4.21-3,7.5-6.54,8.8h0l-1.89.66a2.56,2.56,0,0,0-1.55,2.12q-.11,2-.36,3.8c-.07,1.07.47,1.06.89,1l2.77-1a3.59,3.59,0,0,0,1.66-1.85c.25-.65.49-1.32.7-2,1.78-5.4,4.61-7.43,6.68-8.17h0l.26-.08c2.63-.72,2.9,1.62.65,5.71h0A6.57,6.57,0,0,1,86.37,82c.1-.39.22-.91.41-1.74-1.95,3.38-4.72,6.25-6.74,7a4.1,4.1,0,0,1-.48,1.36c.12-.31.26-.72.48-1.36l-1,.35a4.75,4.75,0,0,0-1.74,1.65,25.78,25.78,0,0,1-2.55,3.14c-.68.73-.69.8-.7.93h.07l1.06-.36A9.43,9.43,0,0,0,77,91.62c.61-.53,1.21-1.09,1.79-1.66,5.79-5.81,5.79-5.81,6.78-6.2l.12,0,.64-.19a6.71,6.71,0,0,0,1.76-1.85A48.14,48.14,0,0,0,91.14,77c.38-.71.75-1.47.56-1.75h-.1l-.86.26c-.8,1-1.12,1.46-2,2.46l2-2.46c-1.66.43-2-1.63-.9-6.29-.77,1.13-1.12,1.63-1.93,2.73M93,76.58l.1-.18-.26.43Zm1.37-2.41L93.09,76.4c.5-.82.93-1.58,1.26-2.23M74.81,94c-.92.5-1.18.64-1.7.91.62-.3,1-.52,1.79-1Zm7.73-9.31a5.09,5.09,0,0,0,1.82-1.89,43.19,43.19,0,0,0,2.38-4.5c.45-1.11.37-1.61-.25-1.51l-3,1A3.64,3.64,0,0,0,81.68,80a39.13,39.13,0,0,1-1.61,4.24c-.37.92-.3,1.31.23,1.2l2.24-.75m6-2,.07-.09c.44-.51.64-.77,1-1.25.61-.76,1.19-1.55,1.74-2.34l.23-.33.1-.15-.16.23c-.9,1.2-2.07,2.79-3,3.93m8.4-18.22a51,51,0,0,1-1.8,5.44,4.57,4.57,0,0,0-.5,1.92l.06,0,.43-.1c.3,0,0,.94-.77,2.39l.43-.77A53.08,53.08,0,0,0,97.51,67a21,21,0,0,1-1.09,2.4c.26-.54.58-1.26,1.09-2.4.32-.91.63-1.84.89-2.77A6.2,6.2,0,0,0,98.83,62a5.62,5.62,0,0,0-.85.16c-.32.21-.65.94-1,2.3M18,12.33c-.27.33-.61.78-1.14,1.47.91-.83,1.26-1.15,2.14-1.88L16.87,13.8A9.29,9.29,0,0,1,18,12.33M6.84,25.49a14.59,14.59,0,0,1,1-2c-.24.47-.55,1.08-1,2l.42-.21a9.38,9.38,0,0,0,1.49-2.11h0c.48-.81,1-1.61,1.51-2.39a12.34,12.34,0,0,1,1.06-1.84c-.25.41-.56,1-1.06,1.84,2.71-4,5.49-6.46,6.59-7l.1,0c.87-.29.49.82-1.7,4.9-.39.72-.76,1.46-1.1,2.21-.43,1.07-.32,1.51.33,1.34l1.46-.57c3.46-1.21,3.89,1.92,3.65,4.76h0c.88-1.23,1.15-1.62,2.1-2.9l-2.09,2.9c-.07.82-.11,1.65-.14,2.5.07,1.15.63,1.58,1.7,1.28l4.66-1.76a2.61,2.61,0,0,0,1.64-2.55q-.26-2.35-.38-4.53c-.15-1-.67-1.32-1.64-1.07L23.51,21c-4.07,1.4-4.7-1.08-3.51-4.17.26-.68.54-1.35.83-2,.35-.87.28-1.2-.24-1.07l-1.17.45a2.48,2.48,0,0,1-.77.19c-1,0-.34-1.63,2.53-4.31.61-.56,1.24-1.09,1.88-1.61a7.36,7.36,0,0,0,1.21-1l-.7.29a19.65,19.65,0,0,0-2,1.34c-.75.56-1.48,1.14-2.18,1.73-1.51,1.3-2.51,2.24-4.33,4a26.32,26.32,0,0,1-2.45,2.24l-.22.12A20.73,20.73,0,0,0,10.86,19Q10,20.2,9.12,21.39l-.33.48C7.86,23.26,7,24.55,6.07,26.31l-.43.86a6.75,6.75,0,0,1,1.07-1.59ZM4.74,29l-.07.15.09-.18Zm0,0,.89-1.76c-.27.5-.57,1.09-.89,1.76M13.43,16l.91-.92c-.23.22-.53.52-.91.92m-.1.1-.46.51.56-.61Zm1.49-1.43c.61-.61,1.35-1.32,2.08-2-.73.68-1.47,1.39-2.08,2l.28-.14a23.32,23.32,0,0,0,1.83-1.67,46.14,46.14,0,0,1,4.35-3.63c.55-.41,1.13-.78,1.67-1.2l-.15.08c-1.31.9-3,2.14-4.28,3.11l-.21.17-.65.55c-.56.48-.84.73-1.31,1.15-.62.57-1.34,1.3-2,2a4.74,4.74,0,0,1,.44-.39Zm4.85-4.33C20.75,9.59,22,8.69,23,8c-1.32.86-2.14,1.46-3.32,2.36m-.59.44-.56.45,1.16-.89-.59.44M9.9,26.33l-2.12.89a5.05,5.05,0,0,0-1.49,2.29,49.26,49.26,0,0,0-1.71,5.34c-.29,1.3-.19,1.89.29,1.8l2.51-1A3.79,3.79,0,0,0,8.91,33a48.45,48.45,0,0,1,1.32-5.18c.31-1.14.2-1.65-.33-1.53M27,5.69l-1.27.68-.16.09.15-.07L27,5.69m0,0h0l.38-.2L27,5.68m-.62.4c1-.55,1.34-.75,2.24-1.18L26.42,6.08h0C25,7.34,23.36,8.47,21.94,9.82c.92-.73,1.27-1,2.1-1.6l-2.1,1.6c-.57.54-1.12,1.1-1.64,1.68s-.72.88-.68,1.11h.2l2-.78a5.07,5.07,0,0,0,1.69-1.58A22,22,0,0,1,26,7.38c.66-.65.67-.7.67-.8h-.06L26,6.81c-.19.07-.19.07-.28,0,.09-.22,1.25-1.12,3.6-2.26l.7-.32-1.18.58a8.61,8.61,0,0,0-1.33.78h0l.77-.3c.53-.25,1-.57,1.52-.86a17.51,17.51,0,0,1,2.32-1.09L32,3.43l-.41.16c-.41.16-.81.34-1.21.52l.45-.21h0c-.6.25-.95.4-1.36.6l-1.23.57L28,5.22a20.08,20.08,0,0,0-1.78,1Zm4.47-2.2,0,0h0ZM14,45.73l-.3.13.19-.08.11,0A24.21,24.21,0,0,1,11.85,44c.48.41,1.14.94,2.17,1.77M5.09,71.18c.21.6.49,1.39.94,2.6q.72,1.35,1.51,2.64c.77,1.22,1.24,1.8,1.48,1.82.22-.14.58-.33,1.07-.57.28-.29.08-1-.62-2.27Q8.7,74.12,8,72.76a17.19,17.19,0,0,1-1.91-2.09c.43.48,1,1.11,1.91,2.09C5.56,68,5.47,64.32,7.77,63.13L8,63a19.38,19.38,0,0,1-2-2.1C6.41,61.39,7,62,8,63l1.61-.66c.78-.49,1-1.42.68-2.87-.29-1-.54-2-.78-3a19.15,19.15,0,0,1-2.1-2c.46.45,1.11,1,2.1,2-1.35-6.61,1.71-9.36,3.69-10.42l3-1.18A2.81,2.81,0,0,0,17.8,42q-.36-2.78-.48-5.47c-.16-1.23-.72-1.69-1.75-1.42l-4.06,1.59a3.17,3.17,0,0,0-1.56,2.71c0,1.24,0,2.5,0,3.77-.14,4.63-1.7,8-4.33,9.3l-1.36.57c-.58.4-.77,1.26-.61,2.7q.24,1.49.56,3C5.83,66.22,5,68,4.4,68.45c-.6.23-1.24-.9-1.78-2.35L3,67.18A56.93,56.93,0,0,0,6,73.79a14.77,14.77,0,0,1-.94-2.6M2.62,66.09c-.44-1.4-.93-3-1.25-4.27a39.12,39.12,0,0,0,1.25,4.27M24.17,78c-.07.62-.14,1.44-.26,2.73q.9,1.11,1.83,2.17a3,3,0,0,0,2.93,1l4.05-1.59c.94-.5,1.07-1.24.39-2.32q-1.64-2.19-3.17-4.6a2.68,2.68,0,0,0-3-1.19l-2.28.89c-4.12,1.48-7.75-.32-10.23-5.09v0a26.85,26.85,0,0,1-2.74-1.82l2.74,1.82c-2.34-4.86-1.46-8.79,2.35-10.52l.38-.16c-1.3-.78-1.77-1.07-2.84-1.81l2.84,1.81,2.4-.93a2.45,2.45,0,0,0,1.2-3q-.9-2.92-1.57-5.8c-.43-1.31-1.2-1.81-2.37-1.5l-4.54,1.77A2.58,2.58,0,0,0,11,52.79c.19,1,.4,2,.64,2.94,1.8,7.68-1.15,10-2.5,10.59l-1.4.59c-.55.39-.55,1.25,0,2.62a54.3,54.3,0,0,0,2.8,5.38c.79,1.21,1.48,1.71,2.15,1.58l1.35-.57a17.71,17.71,0,0,1,0-2.86c0,.65,0,1.51,0,2.86,1.36-.5,5-1,9.83,4.85A20.74,20.74,0,0,1,24.17,78m-15.36.54c-.91-1.41-1.93-3-2.7-4.34a42.38,42.38,0,0,0,2.7,4.34m-8.5-27a11.3,11.3,0,0,1,1-.55c.35-.31.54-1.15.57-2.57a51,51,0,0,1,.33-5.79c.07-.81.11-1.68-.16-2H2c-.44.21-.75.37-1,.5a7.85,7.85,0,0,0-.53,2.37,49.56,49.56,0,0,0-.43,5.84,6.93,6.93,0,0,0,.17,2.14Zm20.4,10.14L16,63.55c-1,.55-1.24,1.5-.75,2.89q1.22,2.81,2.68,5.44c.79,1.21,1.68,1.64,2.78,1.36l4.54-1.78c1.08-.57,1.34-1.45.82-2.77Q24.75,66,23.56,63.2a2.34,2.34,0,0,0-2.84-1.48M5.95,73.92v0l.12.22,0,.07L6,74Zm-.32-.61.32.61c-.28-.53-.53-1.07-.79-1.6Zm-1-2.11c.18.37.37.74.55,1.11l-.88-1.83.32.72M17.48,78l-2.86,1.2c-.5.37-.34,1.06.51,2.19a52.2,52.2,0,0,0,3.93,4.29c1,.94,1.82,1.32,2.46,1.18l2.61-1.09c.62-.39.52-1.06-.31-2.07q-1.92-2.08-3.68-4.4c-.92-1.08-1.78-1.5-2.66-1.3m1.12,10.2h0ZM12.15,83c.79.92,1.63,1.8,2.48,2.65-1.09-1.16-2.4-2.56-3.37-3.71.33.4.53.63.89,1.05m4.08,4.21c.44.4.79.72,1.25,1.12l-1.85-1.7c.2.19.4.4.6.59M15,86l.63.57q-.51-.48-1-1L15,86M64.7,98.27c-.58.17-1.13.31-1.66.44l1.66-.44m-15.21,2.17c-4.08-.07-6.81-.59-6.92-.87l0,0c-1.22-.14-1.65-.19-2.75-.39l2.75.39a3,3,0,0,0,.33-.19,6.4,6.4,0,0,0-1.85-.57,48.61,48.61,0,0,1-5.42-1.62,6.7,6.7,0,0,0-2.48-.6l-.48.24-.15-.08c-.72.29-3.85-1-7.28-2.91-1.33-.82-3-1.86-4.28-2.73l1.24.85c.79.53,1.61,1,2.43,1.53l.81.47L27.54,95l2.35,1.12a58.57,58.57,0,0,0,7.05,2.42l-.17-.06c-.53-.2-1.12-.43-1.72-.69l1.72.69.46.13a53.58,53.58,0,0,0,8,1.57l2.59.19,2.2.06h-.5ZM20.94,91l0,0L20.91,91Zm39.55,8-.49.22c.52,0,1.6-.26,2-.35a44.28,44.28,0,0,0,5.37-1.51,33.47,33.47,0,0,1-4.73,1.25c-.72.13-1.45.2-2.15.4m-6,.69,2.72-.25a10.47,10.47,0,0,1-1.95-.08l1.95.08c-1.17.13-1.58.18-2.72.25m9.89-1.35-.47.13h0l.57-.17Zm-.1,0-.46.12h0l.42-.11m-.52.14h0ZM44.93,98.5a6.55,6.55,0,0,1-1.53-.92c.34.22.81.49,1.53.92-1.3-.12-1.78-.16-2.95-.32l2.95.32m17.21-.1-.4.16h.35c-1.59.25-3.26.51-3.54.54a29.84,29.84,0,0,1-5,.06q-1.25-.09-2.49-.27a7.56,7.56,0,0,0-2.52-.08l-1.29.54,0,0a5.13,5.13,0,0,0,1.78.36c.93.08,1.86.13,2.79.15a49,49,0,0,0,7.08-.32,2.73,2.73,0,0,1,.58,0l0,0c.79-.13,1.77-.35,2.24-.45q1.37-.32,2.73-.72l-.2.06-1.53.42L62,99l-.64.15-.06,0a30.4,30.4,0,0,1-5.1.8v0c-1.18.15-1.61.2-2.7.27l2.7-.27.13-.08c-.69,0-1.37.07-2.06.1q-1.44.07-2.87.06c-1.22,0-1.66.06-2.77,0l2.77,0a22.24,22.24,0,0,1-5.84-.67c-.92-.28-1.19-.58-.74-.83l.11-.05c1.31-.49,1.76-.44,9.32.35a4.58,4.58,0,0,1-1.34-.58c.3.14.7.31,1.34.58.79.08,1.58.13,2.37.15a8.46,8.46,0,0,0,2.22-.16l1.08-.42.06,0v0a3,3,0,0,0-1.07-.25,24,24,0,0,1-3.8-.83,4.41,4.41,0,0,0-2.32-.18l-1,.4c-1.79.65-5.47.58-9.68-1q-1.21-.47-2.4-1a4.58,4.58,0,0,0-2.75-.53l-2,.83-.09.07c0,.35.75.71,1.49,1s1.76.64,2.65.92c6.83,2.13,6.83,2.13,6.85,2.19l0,0-.17.13a18.13,18.13,0,0,0,2.16.21c1,.05,2,.07,3,.07s1.76,0,2.52-.09c-1,.06-1.92.11-2.8.13h.18c1,0,2,0,3-.12.78-.06,1.55-.14,2.33-.2h.07l-1.63.12c1.84-.14,3.31-.36,4.94-.63h0l.1,0,.27-.05-.23,0,.38-.07h0c.5-.09.85-.17,1.27-.27l.62-.14.58-.15-.1,0,.47-.12.08,0-.45.12.76-.2.92-.24h0l.06,0,.88-.26-.26.07.16,0h0l.18-.05.13,0,.3-.09.18-.06L65.8,98l.27-.09c.44-.14.87-.3,1.3-.47-.71.26-1.43.49-2.15.72h0l-.31.11h0l.31-.1-.55.16c.9-.27,1.8-.56,2.7-.89q-1.33.47-2.68.85c-1.12.33-1.52.44-2.63.69l1-.25c-3.41.83-5.61,1-5.86.83l.07,0A15.63,15.63,0,0,1,59.75,99a45.2,45.2,0,0,0,5.45-1q1.09-.28,2.17-.64a18,18,0,0,1-3.48.75,12.09,12.09,0,0,0-1.75.23M34,97.76l-1.61-.57c.61.23,1.14.41,1.61.57m5.16,1.44.79.19c.37.07,1.35.27,2.25.43H42.2l-3-.61M34,97.76l.62.22a32,32,0,0,0,4.54,1.22c-1.63-.37-3.24-.8-4.82-1.33Zm-6.73-3a7.63,7.63,0,0,0,2.18.89c.16-.1.42-.23.77-.41l0-.06c-.09-.26-.54-.6-1.56-1.18a49.93,49.93,0,0,1-4.84-3c-1.16-.79-1.92-1.14-2.34-1.08-.42.21-.72.37-.92.49,0,.17.53.63,1.67,1.42a50.22,50.22,0,0,0,5,3m7.8-3.41A3.66,3.66,0,0,0,38,92l3.29-1.29c.73-.39.71-1-.07-1.76-1.22-1.09-2.42-2.28-3.6-3.53a3,3,0,0,0-3-.88l-3.9,1.52c-.29.16-1.16.65.18,2a51.36,51.36,0,0,0,4.21,3.29m32,6.17.15-.05.12-.06-.43.17Zm-.46.16.19-.07c.18-.06.36-.13.54-.21-.32.13-.63.24-1,.35Z"/><path class="cls-2" d="M114.12,53.74c.9,0,1.49.6,1.79,1.69l11.26,41.15c4.58,1.4,5.88-2.19,8.07-10.46l7.87-30.79c.4-1.29,1.2-1.6,1.79-1.6a1.61,1.61,0,0,1,1.59,2.09l-8.07,31.58c-2.29,9-5,14.65-12.45,12.36A2.64,2.64,0,0,1,124.08,98l-11.56-42a1.69,1.69,0,0,1,1.59-2.19"/><path class="cls-2" d="M183.26,87.41v-21c0-4.78-2.39-8.37-6.28-9.37-4.38-1.1-9.07.6-13,2.79a9.13,9.13,0,0,0-4.68,8V87.41c0,6.78,6.48,9.77,11.86,9.77s12.06-3,12.06-9.77M156,67.68a12.6,12.6,0,0,1,6.28-10.76c4.68-2.79,10.76-4.48,15.64-3.19,5.48,1.4,8.77,6.18,8.77,12.36V87.41c0,8.47-7.27,13.15-15.44,13.15S156,95.78,156,87.41Z"/><path class="cls-2" d="M200.3,55.43a1.69,1.69,0,1,1,3.39,0V98.37a1.69,1.69,0,1,1-3.39,0ZM202,41.78a2.36,2.36,0,0,1,2.39,2.39A2.39,2.39,0,1,1,202,41.78"/><path class="cls-2" d="M245.94,87.41V66.49c0-4.78-2.39-8.37-6.28-9.36-4.38-1.1-9.27.3-13,2.79-2.59,1.79-4.58,4.48-4.68,7.57V87.91c.3,6.48,6.58,9.27,11.86,9.27s12.06-3,12.06-9.77m-27.3-32a1.69,1.69,0,1,1,3.39,0v5.28c2.49-4.88,11.56-8.77,18.53-6.87,5.48,1.39,8.77,6.18,8.77,12.35V87.41c0,8.47-7.27,13.15-15.44,13.15-4.68,0-10.06-2.39-11.86-6.28V117.4a1.69,1.69,0,1,1-3.39,0Z"/><path class="cls-2" d="M265,75h23.91V66.39c0-4.78-2.39-8.37-6.28-9.37-4.38-1.1-9.07.6-13,2.79a9.13,9.13,0,0,0-4.68,8Zm25.61,12.85A1.64,1.64,0,0,1,292.07,90c-1.39,6.87-8,10.56-15.24,10.56-8.17,0-15.24-4.78-15.24-13.15V67.88a12.94,12.94,0,0,1,6.28-11c4.68-2.79,10.76-4.48,15.64-3.19,5.48,1.4,8.77,6.18,8.77,12.36V76.65a1.75,1.75,0,0,1-1.69,1.69H265v9.07c0,6.78,6.48,9.77,11.86,9.77,4.78,0,10.76-2.29,11.86-7.77a1.87,1.87,0,0,1,1.89-1.59"/><path class="cls-2" d="M331.43,87.91V65.69c-.3-4.38-2.59-7.67-6.28-8.67-4.38-1.1-9.07.6-13,2.79a9.13,9.13,0,0,0-4.68,8V87.41c0,6.78,6.48,9.77,11.86,9.77s11.76-2.79,12.06-9.27m0,6.38c-2.09,4.08-7.07,6.28-12.06,6.28-8.17,0-15.24-4.78-15.24-13.15V67.68a12.61,12.61,0,0,1,6.28-10.76c4.68-2.79,10.76-4.48,15.64-3.19a8.13,8.13,0,0,1,5.38,4.88V37.89a1.69,1.69,0,0,1,3.39,0V98.37a1.69,1.69,0,1,1-3.39,0Z"/></g></g></svg>